# ProBuilder 5.0.4
# https://unity3d.com/unity/features/worldbuilding/probuilder
# 04.05.2022 10:36:30

mtllib ./AfisCantina.mtl
o AfisCantina

g AfisCantina
v -0.8032722 0 1.212692
v -0.8032722 5.026411 1.212692
v -0.6024532 0 2.262915
v -0.6024532 5.026411 2.262915
v -0.2008152 0 2.262915
v -0.2008152 5.026411 2.262915
v 3.814697E-06 0 1.212692
v 3.814697E-06 5.026411 1.212692
v -0.2008152 0 0.16247
v -0.2008152 5.026411 0.16247
v -0.6024532 0 0.16247
v -0.6024532 5.026411 0.16247
v -0.4016342 0 1.212692
v -0.4016342 5.026411 1.212692

vt 1.212692 1.945439E-10
vt 1.212692 5.026411
vt 2.262915 1.459077E-10
vt 2.262915 5.026411
vt -2.602453 0
vt -2.602453 5.026411
vt -2.200815 0
vt -2.200815 5.026411
vt -2.362915 -1.019776E-11
vt -2.362915 5.026411
vt -1.312692 1.920971E-16
vt -1.312692 5.026411
vt -0.26247 -1.019776E-11
vt -0.26247 5.026411
vt -22.79918 0
vt -22.79918 5.026411
vt -22.39755 0
vt -22.39755 5.026411
vt 0.16247 1.459077E-10
vt 0.16247 5.026411
vt -0.8032722 1.212692
vt -0.4016342 1.212692
vt -0.6024532 2.262915
vt -0.2008152 2.262915
vt 0.2024532 2.262915
vt 0.00163421 1.212692
vt -0.1991848 2.262915
vt 3.814697E-06 1.212692
vt -0.4000038 1.212692
vt -0.2008152 0.16247
vt -0.1991848 0.16247
vt -0.6024532 0.16247
vt 0.2024532 0.16247
vt 0.4032722 1.212692

vn -0.9979749 0 -0.06360952
vn -0.9979749 0 0.06360947
vn -0.6372547 0 0.7706533
vn 0.6372547 0 0.7706533
vn 0.9979749 0 0.06360946
vn 0.9979749 0 -0.06360953
vn 0.6372547 0 -0.7706533
vn -0.6372547 0 -0.7706533
vn 0 -1 0
vn 0 1 0

usemtl New_Material
f 1/21/9 13/22/9 3/23/9
f 3/23/9 13/22/9 5/24/9
f 5/24/9 13/22/9 7/28/9
f 7/28/9 13/22/9 9/30/9
f 9/30/9 13/22/9 11/32/9
f 11/32/9 13/22/9 1/21/9
f 3/3/3 2/2/2 1/1/1
f 3/3/3 4/4/3 2/2/2
f 1/1/1 12/20/8 11/19/8
f 1/1/1 2/2/2 12/20/8
f 9/13/7 8/12/6 7/11/5
f 9/13/7 10/14/7 8/12/6
f 7/11/5 6/10/4 5/9/4
f 7/11/5 8/12/6 6/10/4
f 6/27/10 14/26/10 4/25/10
f 8/29/10 14/26/10 6/27/10
f 10/31/10 14/26/10 8/29/10
f 12/33/10 14/26/10 10/31/10
f 2/34/10 14/26/10 12/33/10
f 4/25/10 14/26/10 2/34/10
f 6/8/4 4/6/3 3/5/3
f 3/5/3 5/7/4 6/8/4
f 12/18/8 10/16/7 9/15/7
f 9/15/7 11/17/8 12/18/8

