# ProBuilder 5.0.4
# https://unity3d.com/unity/features/worldbuilding/probuilder
# 02.05.2022 22:26:21

mtllib ./Margine_lemn_cos_gunoi_parc_(17).mtl
o Margine lemn cos gunoi parc (17)

g Margine lemn cos gunoi parc (17)
v 0.1249823 -1.765585 0.1249925
v -0.1250293 -1.765585 0.1249884
v 0.125 1.473365 0.125
v -0.125 1.473365 0.125
v -0.1250156 -1.765585 -0.1250004
v -0.125 1.473365 -0.125
v 0.1249825 -1.765585 -0.1250083
v 0.125 1.473365 -0.125

vt 0.1249844 -1.765585
vt -0.1250272 -1.765585
vt 0.1250021 1.473366
vt -0.124998 1.473366
vt -0.1249935 -1.765586
vt 0.1250116 -1.765585
vt 0.124996 1.473365
vt -0.125004 1.473365
vt -0.125 0.125
vt 0.125 0.125
vt -0.125 -0.125
vt 0.125 -0.125
vt 0.1249825 -0.1250083
vt 0.1249823 0.1249925
vt -0.1250293 0.1249884

vn -1.642032E-05 -2.32092E-06 1
vn -1 9.045004E-06 -5.483874E-05
vn -3.165031E-05 1.197683E-07 -1
vn 1 -5.398822E-06 7.152535E-07
vn 0 1 0
vn 0 -1 0

usemtl M_Wood2
f 4/3/2 6/4/2 5/5/2 2/1/2
f 6/7/3 8/8/3 7/5/3 5/6/3
f 8/3/4 3/4/4 1/5/4 7/6/4
f 8/11/5 6/12/5 4/10/5 3/9/5
f 1/14/6 2/15/6 5/11/6 7/13/6

usemtl M_Wood3
f 3/3/1 4/4/1 2/2/1 1/1/1

