# ProBuilder 5.0.4
# https://unity3d.com/unity/features/worldbuilding/probuilder
# 02.05.2022 22:26:21

mtllib ./Margine_lemn_cos_gunoi_parc_(19).mtl
o Margine lemn cos gunoi parc (19)

g Margine lemn cos gunoi parc (19)
v 0.124966 -0.77632 0.1250042
v -0.1250307 -0.77632 0.1250077
v 0.125 1.473365 0.125
v -0.125 1.473365 0.125
v -0.1250362 -0.77632 -0.1249871
v -0.125 1.473365 -0.125
v 0.1249789 -0.77632 -0.1249912
v 0.125 1.473365 -0.125

vt 0.1249642 -0.7763202
vt -0.1250324 -0.7763202
vt 0.1249982 1.473365
vt -0.1250018 1.473365
vt 0.125005 -0.7763217
vt -0.1249899 -0.7763217
vt 0.1250065 1.473367
vt -0.1249935 1.473367
vt -0.125 0.125
vt 0.125 0.125
vt -0.125 -0.125
vt 0.125 -0.125
vt 0.1249789 -0.1249912
vt -0.1250362 -0.1249871
vt 0.124966 0.1250042

vn 1.400728E-05 1.874285E-06 1
vn -1 1.363158E-05 2.205417E-05
vn -1.621149E-05 -5.719274E-06 -1
vn 1 -9.388843E-06 5.161857E-05
vn 0 1 0
vn 0 -1 0

usemtl M_Wood2
f 4/3/2 6/4/2 5/6/2 2/5/2
f 6/3/3 8/4/3 7/6/3 5/5/3
f 8/7/4 3/8/4 1/6/4 7/1/4
f 8/11/5 6/12/5 4/10/5 3/9/5
f 1/15/6 2/9/6 5/14/6 7/13/6

usemtl M_Wood3
f 3/3/1 4/4/1 2/2/1 1/1/1

