# ProBuilder 5.0.4
# https://unity3d.com/unity/features/worldbuilding/probuilder
# 02.05.2022 22:26:21

mtllib ./Margine_lemn_cos_gunoi_parc_(9).mtl
o Margine lemn cos gunoi parc (9)

g Margine lemn cos gunoi parc (9)
v 0.1250109 -1.758246 0.1250115
v -0.1249874 -1.758246 0.1249971
v 0.125 1.473365 0.125
v -0.125 1.473365 0.125
v -0.1249867 -1.758246 -0.1249886
v -0.125 1.473365 -0.125
v 0.1249995 -1.758246 -0.1249904
v 0.125 1.473365 -0.125

vt 0.125018 -1.758246
vt -0.1249803 -1.758246
vt 0.1250072 1.473365
vt -0.1249928 1.473365
vt 0.1249975 -1.758245
vt -0.1250004 -1.758245
vt 0.1249991 1.473366
vt -0.1250009 1.473366
vt -0.125 0.125
vt 0.125 0.125
vt -0.125 -0.125
vt 0.125 -0.125
vt 0.1249995 -0.1249904
vt -0.1249867 -0.1249886
vt -0.1249874 0.1249971

vn -5.731026E-05 3.545714E-06 1
vn -1 -3.891734E-06 -2.89099E-06
vn -7.182756E-06 -3.525187E-06 -1
vn 1 -1.523001E-07 -4.547801E-05
vn 0 1 0
vn 0 -1 0

usemtl M_Wood2
f 4/3/2 6/4/2 5/2/2 2/5/2
f 6/7/3 8/8/3 7/6/3 5/5/3
f 8/7/4 3/8/4 1/6/4 7/5/4
f 8/11/5 6/12/5 4/10/5 3/9/5
f 1/10/6 2/15/6 5/14/6 7/13/6

usemtl M_Wood3
f 3/3/1 4/4/1 2/2/1 1/1/1

