# ProBuilder 5.0.4
# https://unity3d.com/unity/features/worldbuilding/probuilder
# 02.05.2022 22:26:21

mtllib ./Margine_lemn_cos_gunoi_parc_(15).mtl
o Margine lemn cos gunoi parc (15)

g Margine lemn cos gunoi parc (15)
v 0.1249973 -0.7805456 0.1250069
v -0.1249973 -0.7805456 0.1250061
v 0.125 1.473365 0.125
v -0.125 1.473365 0.125
v -0.1249965 -0.7805456 -0.1249884
v -0.125 1.473365 -0.125
v 0.1249981 -0.7805456 -0.1249876
v 0.125 1.473365 -0.125

vt 0.1249977 -0.7805459
vt -0.1249969 -0.7805459
vt 0.1250004 1.473365
vt -0.1249996 1.473365
vt 0.1250065 -0.7805454
vt 0.1249878 -0.7862695
vt -0.1250068 -0.7862695
vt 0.1250001 1.464183
vt -0.1249999 1.464183
vt -0.1250001 1.478027
vt 0.1249999 1.478027
vt 0.1249981 -0.1249876
vt -0.1249965 -0.1249884
vt 0.1249973 0.1250069
vt -0.1249973 0.1250061

vn -3.218721E-06 3.0544E-06 1
vn -1 -1.213172E-06 -3.188918E-06
vn 3.188918E-06 -5.127017E-06 -1
vn 1 -8.594445E-07 3.188918E-06
vn 0.5 0.4999995 7.972296E-07
vn 0 1 0
vn 0 -1 0

usemtl M_Wood2
f 8/8/5 1/7/4 7/6/4
f 8/8/5 3/9/5 1/7/4
f 8/8/5 4/10/6 3/9/5
f 8/8/5 6/11/6 4/10/6
f 6/4/2 5/2/2 2/5/2
f 2/5/2 4/3/2 6/4/2
f 8/4/3 7/2/3 5/1/3
f 5/1/3 6/3/3 8/4/3
f 2/15/7 5/13/7 7/12/7
f 7/12/7 1/14/7 2/15/7

usemtl M_Wood3
f 3/3/1 4/4/1 2/2/1 1/1/1

