# ProBuilder 5.0.4
# https://unity3d.com/unity/features/worldbuilding/probuilder
# 02.05.2022 22:26:21

mtllib ./Margine_lemn_cos_gunoi_parc.mtl
o Margine lemn cos gunoi parc

g Margine lemn cos gunoi parc
v 0.1249733 -0.77632 0.1249894
v -0.1250265 -0.77632 0.1249896
v 0.125 1.473365 0.125
v -0.125 1.473365 0.125
v -0.1250267 -0.77632 -0.1250044
v -0.125 1.473365 -0.125
v 0.1249731 -0.77632 -0.1250045
v 0.125 1.473365 -0.125

vt 0.1249732 -0.7763194
vt -0.1250266 -0.7763194
vt 0.1249999 1.473366
vt -0.1250001 1.473366
vt 0.1250266 -0.7763202
vt -0.1249732 -0.7763202
vt -0.125 0.125
vt 0.125 0.125
vt -0.125 -0.125
vt 0.125 -0.125
vt 0.1249731 -0.1250045
vt 0.1249733 0.1249894
vt -0.1250265 0.1249896

vn 6.854539E-07 -4.692874E-06 1
vn -1 1.179012E-05 7.15273E-07
vn -6.556516E-07 1.947365E-06 -1
vn 1 -1.195571E-05 -7.15273E-07
vn 0 1 0
vn 0 -1 0

usemtl M_Wood2
f 4/3/2 6/4/2 5/2/2 2/1/2
f 6/3/3 8/4/3 7/6/3 5/5/3
f 8/3/4 3/4/4 1/6/4 7/5/4
f 8/9/5 6/10/5 4/8/5 3/7/5
f 1/12/6 2/13/6 5/9/6 7/11/6

usemtl M_Wood3
f 3/3/1 4/4/1 2/2/1 1/1/1

