# ProBuilder 5.0.4
# https://unity3d.com/unity/features/worldbuilding/probuilder
# 02.05.2022 22:26:21

mtllib ./Margine_lemn_cos_gunoi_parc_(8).mtl
o Margine lemn cos gunoi parc (8)

g Margine lemn cos gunoi parc (8)
v 0.1250031 -1.758246 0.1250047
v -0.1249937 -1.758246 0.1249991
v 0.125 1.473365 0.125
v -0.125 1.473365 0.125
v -0.1249851 -1.758246 -0.1249907
v -0.125 1.473365 -0.125
v 0.1250128 -1.758246 -0.124998
v 0.125 1.473365 -0.125

vt 0.1250059 -1.758246
vt -0.1249909 -1.758246
vt 0.1250028 1.473365
vt -0.1249972 1.473365
vt 0.1249815 -1.758245
vt -0.1250164 -1.758245
vt 0.1249964 1.473366
vt -0.1250036 1.473366
vt -0.125 0.125
vt 0.125 0.125
vt -0.125 -0.125
vt 0.125 -0.125
vt 0.1250128 -0.124998
vt -0.1249851 -0.1249907
vt -0.1249937 0.1249991

vn -2.241164E-05 1.443241E-06 1
vn -1 -1.964303E-06 -3.418466E-05
vn -2.899791E-05 -2.868215E-06 -1
vn 1 3.951704E-06 3.86234E-05
vn 0 1 0
vn 0 -1 0

usemtl M_Wood2
f 4/3/2 6/4/2 5/2/2 2/1/2
f 6/7/3 8/8/3 7/6/3 5/5/3
f 8/3/4 3/4/4 1/2/4 7/1/4
f 8/11/5 6/12/5 4/10/5 3/9/5
f 1/10/6 2/15/6 5/14/6 7/13/6

usemtl M_Wood3
f 3/3/1 4/4/1 2/2/1 1/1/1

